<?xml version="1.0" encoding="iso-8859-1"?>
<!-- Uploaded to: SVG Repo, www.svgrepo.com, Generator: SVG Repo Mixer Tools -->
<svg fill="#000000" height="800px" width="800px" version="1.1" id="Layer_1" xmlns="http://www.w3.org/2000/svg" xmlns:xlink="http://www.w3.org/1999/xlink" 
	 viewBox="0 0 512.001 512.001" xml:space="preserve">
<g>
	<g>
		<path d="M256.001,95.319c-28.531,0-51.745,23.213-51.745,51.745s23.213,51.745,51.745,51.745
			c28.531,0,51.745-23.213,51.745-51.745C307.745,118.532,284.532,95.319,256.001,95.319z M256.001,182.468
			c-19.521,0-35.404-15.883-35.404-35.404s15.883-35.404,35.404-35.404s35.404,15.883,35.404,35.404
			S275.522,182.468,256.001,182.468z"/>
	</g>
</g>
<g>
	<g>
		<path d="M395.707,116.258l-22.712-2.271c-2.58-9.145-6.225-17.934-10.887-26.25l14.462-17.677
			c2.658-3.248,2.422-7.983-0.546-10.951l-32.069-32.069c-2.967-2.967-7.701-3.205-10.951-0.546l-17.677,14.463
			c-8.314-4.661-17.105-8.307-26.25-10.888l-2.27-22.711C286.389,3.181,282.874,0,278.677,0h-45.353
			c-4.197,0-7.713,3.181-8.13,7.358l-2.27,22.711c-9.145,2.58-17.936,6.227-26.25,10.888l-17.676-14.463
			c-3.248-2.658-7.983-2.422-10.951,0.546l-32.07,32.07c-2.969,2.969-3.204,7.702-0.546,10.951l14.462,17.677
			c-4.662,8.315-8.307,17.105-10.887,26.25l-22.712,2.271c-4.177,0.418-7.356,3.933-7.356,8.13v45.352
			c0,4.196,3.18,7.712,7.357,8.129l22.712,2.271c2.58,9.145,6.225,17.935,10.887,26.25l-14.462,17.677
			c-2.658,3.248-2.422,7.983,0.546,10.95l32.069,32.069c2.967,2.967,7.702,3.205,10.95,0.546l17.678-14.462
			c8.314,4.661,17.105,8.308,26.25,10.888l2.27,22.711c0.417,4.177,3.933,7.358,8.13,7.358h45.353c4.197,0,7.713-3.181,8.13-7.358
			l2.27-22.711c9.145-2.58,17.936-6.227,26.25-10.888l17.678,14.462c3.248,2.658,7.983,2.423,10.95-0.546l32.069-32.069
			c2.969-2.969,3.204-7.702,0.546-10.95l-14.462-17.677c4.662-8.315,8.307-17.105,10.887-26.25l22.712-2.271
			c4.177-0.418,7.356-3.933,7.356-8.13v-45.352C403.063,120.19,399.883,116.676,395.707,116.258z M386.724,162.346l-21.038,2.104
			c-3.487,0.349-6.364,2.882-7.149,6.299c-2.61,11.349-7.083,22.135-13.296,32.059c-1.86,2.971-1.618,6.797,0.601,9.509
			l13.399,16.376l-21.613,21.613l-16.377-13.399c-2.713-2.22-6.538-2.461-9.509-0.601c-9.922,6.212-20.708,10.686-32.059,13.296
			c-3.415,0.785-5.949,3.661-6.299,7.15l-2.101,21.037h-30.565l-2.104-21.037c-0.349-3.488-2.882-6.364-6.299-7.149
			c-11.35-2.61-22.137-7.084-32.059-13.296c-2.972-1.861-6.798-1.618-9.509,0.601l-16.377,13.399l-21.613-21.613l13.399-16.376
			c2.219-2.713,2.461-6.538,0.601-9.509c-6.213-9.923-10.686-20.71-13.296-32.059c-0.785-3.416-3.661-5.95-7.149-6.299
			l-21.036-2.104v-30.565l21.038-2.104c3.487-0.349,6.364-2.882,7.15-6.299c2.61-11.349,7.083-22.135,13.296-32.059
			c1.859-2.971,1.618-6.797-0.601-9.509L152.76,65.435l21.613-21.613l16.376,13.399c2.714,2.22,6.538,2.462,9.509,0.601
			c9.922-6.212,20.708-10.686,32.059-13.296c3.415-0.785,5.949-3.661,6.299-7.15l2.102-21.037h30.565l2.104,21.038
			c0.349,3.488,2.882,6.364,6.299,7.149c11.35,2.61,22.137,7.084,32.059,13.296c2.971,1.859,6.795,1.617,9.509-0.601l16.376-13.399
			l21.613,21.613l-13.399,16.376c-2.219,2.712-2.461,6.538-0.601,9.509c6.213,9.923,10.686,20.71,13.296,32.059
			c0.785,3.416,3.661,5.95,7.149,6.299l21.037,2.102V162.346z"/>
	</g>
</g>
<g>
	<g>
		<path d="M256.001,310.468c-106.62,0-193.362,86.742-193.362,193.362c0,4.512,3.658,8.17,8.17,8.17s8.17-3.658,8.17-8.17
			c0-65.948,36.253-123.579,89.872-154.035V503.83c0,4.512,3.658,8.17,8.17,8.17s8.17-3.658,8.17-8.17V341.605
			c9.447-4.14,19.32-7.477,29.536-9.926l16.423,36.952l-18.577,96.09c-0.499,2.58,0.273,5.243,2.076,7.155l35.404,37.559
			c1.544,1.637,3.695,2.565,5.946,2.565c2.251,0,4.402-0.928,5.946-2.565l35.404-37.559c1.803-1.912,2.575-4.575,2.076-7.155
			l-18.577-96.09l16.423-36.952c10.216,2.449,20.089,5.788,29.536,9.926V503.83c0,4.512,3.658,8.17,8.17,8.17s8.17-3.658,8.17-8.17
			V349.795c53.619,30.455,89.872,88.088,89.872,154.035c0,4.512,3.658,8.17,8.17,8.17s8.17-3.658,8.17-8.17
			C449.362,397.21,362.621,310.468,256.001,310.468z M256.001,326.809c8.41,0,16.68,0.603,24.781,1.743l-13.75,30.938H244.97
			l-13.75-30.938C239.32,327.412,247.591,326.809,256.001,326.809z M282.589,463.713l-26.588,28.206l-26.588-28.206l16.99-87.883
			h19.197L282.589,463.713z"/>
	</g>
</g>
<g>
	<g>
		<circle cx="367.66" cy="471.149" r="8.17"/>
	</g>
</g>
<g>
	<g>
		<circle cx="367.66" cy="427.574" r="8.17"/>
	</g>
</g>
</svg>