<svg version="1.1" id="Uploaded to svgrepo.com" xmlns="http://www.w3.org/2000/svg" xmlns:xlink="http://www.w3.org/1999/xlink" x="0px" y="0px"
	 width="32px" height="32px" viewBox="0 0 32 32" style="enable-background:new 0 0 32 32;" xml:space="preserve">
<path class="stone_een" d="M22,29.5c0,0.276-0.224,0.5-0.5,0.5h-11c-0.276,0-0.5-0.224-0.5-0.5c0-0.276,0.224-0.5,0.5-0.5H12v-2h8v2
	h1.5C21.776,29,22,29.224,22,29.5z M32,7v16c0,1.657-1.343,3-3,3H3c-1.657,0-3-1.343-3-3V7c0-1.657,1.343-3,3-3h26
	C30.657,4,32,5.343,32,7z M10,9.5c0,0.276,0.224,0.5,0.5,0.5h10c0.276,0,0.5-0.224,0.5-0.5C21,9.224,20.776,9,20.5,9h-10
	C10.224,9,10,9.224,10,9.5z M16.5,11h-5c-0.276,0-0.5,0.224-0.5,0.5c0,0.276,0.224,0.5,0.5,0.5h5c0.276,0,0.5-0.224,0.5-0.5
	C17,11.224,16.776,11,16.5,11z M9.5,11h-2C7.224,11,7,11.224,7,11.5C7,11.776,7.224,12,7.5,12h2c0.276,0,0.5-0.224,0.5-0.5
	C10,11.224,9.776,11,9.5,11z M6,9.5C6,9.776,6.224,10,6.5,10h2C8.776,10,9,9.776,9,9.5C9,9.224,8.776,9,8.5,9h-2
	C6.224,9,6,9.224,6,9.5z M9,19.5C9,19.224,8.776,19,8.5,19h-2C6.224,19,6,19.224,6,19.5C6,19.776,6.224,20,6.5,20h2
	C8.776,20,9,19.776,9,19.5z M10,17.5c0-0.276-0.224-0.5-0.5-0.5h-2C7.224,17,7,17.224,7,17.5C7,17.776,7.224,18,7.5,18h2
	C9.776,18,10,17.776,10,17.5z M22,15.5c0-0.276-0.224-0.5-0.5-0.5h-13C8.224,15,8,15.224,8,15.5C8,15.776,8.224,16,8.5,16h13
	C21.776,16,22,15.776,22,15.5z M22,13.5c0-0.276-0.224-0.5-0.5-0.5h-13C8.224,13,8,13.224,8,13.5C8,13.776,8.224,14,8.5,14h13
	C21.776,14,22,13.776,22,13.5z"/>
</svg>
